<?xml version="1.0" encoding="utf-8"?>
<!-- Generator: Adobe Illustrator 19.0.0, SVG Export Plug-In . SVG Version: 6.00 Build 0)  -->
<svg version="1.1" id="Layer_1" xmlns="http://www.w3.org/2000/svg" xmlns:xlink="http://www.w3.org/1999/xlink" x="0px" y="0px"
	 viewBox="0 0 512 512" style="enable-background:new 0 0 512 512;" xml:space="preserve">
<style type="text/css">
	.st0{fill:#8E8E8E;}
	.st1{fill:#CCCCCC;}
	.st2{fill:#E0E0D1;}
	.st3{fill:#FFFFFF;}
</style>
<g id="XMLID_1_">
	<path id="XMLID_3_" class="st0" d="M256,0c141,0,256,115,256,256S397,512,256,512S0,397,0,256S115,0,256,0"/>
	<polyline id="XMLID_4_" class="st1" points="111.9,127.6 111.9,384.4 208,415.9 208,159.9 111.9,127.6 	"/>
	<polyline id="XMLID_5_" class="st1" points="304,127.6 208,159.9 208,415.9 304,384.4 304,127.6 	"/>
	<polyline id="XMLID_6_" class="st1" points="304,127.6 304,384.4 400.1,415.9 400.1,159.9 304,127.6 	"/>
	<polygon id="XMLID_7_" class="st2" points="208,400.1 111.9,367.9 111.9,111.9 208,144.1 	"/>
	<polygon id="XMLID_8_" class="st3" points="304,367.9 208,400.1 208,144.1 304,111.9 	"/>
	<polygon id="XMLID_9_" class="st2" points="400.1,400.1 304,367.9 304,111.9 400.1,144.1 	"/>
</g>
</svg>
